<?xml version="1.0" encoding="UTF-8" standalone="no"?>
<!--
                 Copyright 2016 Webindex authors (see AUTHORS)

  Licensed under the Apache License, Version 2.0 (the "License");
  you may not use this file except in compliance with the License.
  You may obtain a copy of the License at

      http://www.apache.org/licenses/LICENSE-2.0

  Unless required by applicable law or agreed to in writing, software
  distributed under the License is distributed on an "AS IS" BASIS,
  WITHOUT WARRANTIES OR CONDITIONS OF ANY KIND, either express or implied.
  See the License for the specific language governing permissions and
  limitations under the License.
-->
<!-- This logo was created using:
  - Flow-merge icon by Stephen Hutchings (CC BY-SA license)
    https://github.com/stephenhutchings/typicons.font
  - Audiowide Font (SIL Open Font License 1.1)
    https://www.google.com/fonts/specimen/Audiowide
-->
<svg
   xmlns:dc="http://purl.org/dc/elements/1.1/"
   xmlns:cc="http://creativecommons.org/ns#"
   xmlns:rdf="http://www.w3.org/1999/02/22-rdf-syntax-ns#"
   xmlns:svg="http://www.w3.org/2000/svg"
   xmlns="http://www.w3.org/2000/svg"
   xmlns:sodipodi="http://sodipodi.sourceforge.net/DTD/sodipodi-0.dtd"
   xmlns:inkscape="http://www.inkscape.org/namespaces/inkscape"
   width="744.09448819"
   height="1052.3622047"
   id="svg2"
   version="1.1"
   inkscape:version="0.47 r22583"
   sodipodi:docname="webindex.svg">
  <defs
     id="defs4">
    <inkscape:perspective
       sodipodi:type="inkscape:persp3d"
       inkscape:vp_x="0 : 526.18109 : 1"
       inkscape:vp_y="0 : 1000 : 0"
       inkscape:vp_z="744.09448 : 526.18109 : 1"
       inkscape:persp3d-origin="372.04724 : 350.78739 : 1"
       id="perspective10" />
    <inkscape:perspective
       id="perspective9120"
       inkscape:persp3d-origin="12 : 8 : 1"
       inkscape:vp_z="24 : 12 : 1"
       inkscape:vp_y="0 : 1000 : 0"
       inkscape:vp_x="0 : 12 : 1"
       sodipodi:type="inkscape:persp3d" />
  </defs>
  <sodipodi:namedview
     id="base"
     pagecolor="#ffffff"
     bordercolor="#666666"
     borderopacity="1.0"
     inkscape:pageopacity="0.0"
     inkscape:pageshadow="2"
     inkscape:zoom="0.58630005"
     inkscape:cx="493.67526"
     inkscape:cy="526.18109"
     inkscape:document-units="px"
     inkscape:current-layer="layer1"
     showgrid="false"
     inkscape:window-width="1670"
     inkscape:window-height="872"
     inkscape:window-x="97"
     inkscape:window-y="25"
     inkscape:window-maximized="0" />
  <metadata
     id="metadata7">
    <rdf:RDF>
      <cc:Work
         rdf:about="">
        <dc:format>image/svg+xml</dc:format>
        <dc:type
           rdf:resource="http://purl.org/dc/dcmitype/StillImage" />
        <dc:title></dc:title>
      </cc:Work>
    </rdf:RDF>
  </metadata>
  <g
     inkscape:label="Layer 1"
     inkscape:groupmode="layer"
     id="layer1">
    <flowRoot
       xml:space="preserve"
       id="flowRoot2816"
       style="font-size:40px;font-style:normal;font-weight:normal;fill:#ff6600;fill-opacity:1;stroke:none;font-family:Bitstream Vera Sans"
       transform="translate(100.05314,168.95898)"><flowRegion
         id="flowRegion2818"><rect
           id="rect2820"
           width="457.14285"
           height="217.14285"
           x="120"
           y="315.21933"
           style="fill:#ff6600" /></flowRegion><flowPara
         id="flowPara2822"
         style="font-size:72px;font-style:normal;font-variant:normal;font-weight:normal;font-stretch:normal;text-align:start;line-height:125%;writing-mode:lr-tb;text-anchor:start;fill:#ff6600;font-family:Audiowide;-inkscape-font-specification:Audiowide">WebIndex</flowPara></flowRoot>    <path
       id="path9112"
       d="m 209.78738,539.25646 0,-4.97635 c 0,-5.18875 -7.72387,-9.40964 -17.2188,-9.40964 -4.06856,0 -7.37949,-1.80934 -7.37949,-4.0327 l 0,-4.07842 c 5.71172,-1.11571 9.83932,-4.07033 9.83932,-7.57073 0,-4.44672 -6.62187,-8.0654 -14.75899,-8.0654 -8.13712,0 -14.75897,3.61868 -14.75897,8.0654 0,3.5004 4.12758,6.45502 9.83932,7.56804 l 0,4.08111 c 0,2.22336 -3.31094,4.0327 -7.3795,4.0327 -9.49494,0 -17.21881,4.22089 -17.21881,9.40964 l 0,4.97635 c -5.71172,1.11572 -9.83932,4.07035 -9.83932,7.57073 0,4.44673 6.62187,8.06542 14.75899,8.06542 8.1371,0 14.75897,-3.61869 14.75897,-8.06542 0,-3.50038 -4.12759,-6.45501 -9.83932,-7.57073 l 0,-4.97635 c 0,-2.22337 3.31093,-4.0327 7.37949,-4.0327 4.81635,0 9.17024,-1.09421 12.29915,-2.8444 3.12891,1.75019 7.4828,2.8444 12.29916,2.8444 4.06855,0 7.37948,1.80933 7.37948,4.0327 l 0,4.97635 c -5.71172,1.11572 -9.83932,4.07035 -9.83932,7.57073 0,4.44673 6.62187,8.06542 14.75899,8.06542 8.13712,0 14.75897,-3.61869 14.75897,-8.06542 0,-3.50038 -4.12759,-6.45501 -9.83932,-7.57073 z m -54.11625,10.25921 c -2.71566,0 -4.91967,-1.20713 -4.91967,-2.68848 0,-1.48134 2.20401,-2.68846 4.91967,-2.68846 2.71565,0 4.91965,1.20712 4.91965,2.68846 0,1.48135 -2.204,2.68848 -4.91965,2.68848 z m 24.59829,-43.01551 c 2.71565,0 4.91967,1.20712 4.91967,2.68846 0,1.48135 -2.20402,2.68848 -4.91967,2.68848 -2.71565,0 -4.91965,-1.20713 -4.91965,-2.68848 0,-1.48134 2.204,-2.68846 4.91965,-2.68846 z m 24.59831,43.01551 c -2.71566,0 -4.91967,-1.20713 -4.91967,-2.68848 0,-1.48134 2.20401,-2.68846 4.91967,-2.68846 2.71565,0 4.91965,1.20712 4.91965,2.68846 0,1.48135 -2.204,2.68848 -4.91965,2.68848 z"
       style="fill:#0055d4" />
  </g>
</svg>
